<?xml version="1.0" standalone="no"?>
<!DOCTYPE svg PUBLIC "-//W3C//DTD SVG 20010904//EN"
 "http://www.w3.org/TR/2001/REC-SVG-20010904/DTD/svg10.dtd">
<svg version="1.0" xmlns="http://www.w3.org/2000/svg"
 width="1234.000000pt" height="510.000000pt" viewBox="0 0 1234.000000 510.000000"
 preserveAspectRatio="xMidYMid meet">
<metadata>
Created by potrace 1.16, written by Peter Selinger 2001-2019
</metadata>
<g transform="translate(0.000000,510.000000) scale(0.100000,-0.100000)"
fill="#ffffff" stroke="none">
<path d="M9103 4701 c-45 -29 -88 -90 -144 -207 -48 -100 -119 -274 -144 -349
-41 -124 -91 -305 -111 -400 -9 -44 -20 -96 -24 -115 -21 -96 -52 -251 -60
-300 -5 -30 -14 -84 -20 -120 -58 -349 -78 -772 -46 -950 33 -183 109 -309
235 -393 90 -60 108 -69 138 -65 48 6 50 29 11 115 -20 43 -42 98 -48 123 -27
99 -28 509 0 720 61 480 185 994 299 1243 17 37 31 69 31 71 0 2 17 42 39 88
44 94 62 144 86 240 l16 66 -31 63 c-18 35 -39 85 -47 111 -15 53 -35 67 -108
75 -29 3 -49 -2 -72 -16z"/>
<path d="M10034 4410 c-85 -90 -218 -314 -262 -441 -27 -80 -6 -235 47 -343
41 -83 146 -196 183 -196 39 0 47 24 41 116 -6 80 -6 80 41 174 62 123 130
246 190 345 20 33 36 65 36 72 0 6 -12 21 -28 31 -35 26 -52 88 -45 168 5 58
4 62 -23 81 -32 22 -88 43 -115 43 -10 0 -39 -22 -65 -50z"/>
<path d="M4010 4440 c-217 -20 -326 -31 -393 -41 -39 -6 -99 -14 -132 -19
-153 -21 -289 -57 -590 -155 -53 -17 -286 -110 -353 -141 -29 -13 -55 -24 -57
-24 -14 0 -232 -105 -325 -157 -30 -17 -86 -47 -125 -68 -261 -142 -447 -291
-506 -407 -65 -126 -66 -375 -3 -513 44 -96 99 -164 178 -217 119 -82 278
-133 506 -163 144 -19 588 -20 1138 -3 515 15 955 1 1277 -43 268 -36 438 -78
623 -151 139 -55 282 -148 282 -183 0 -17 -152 -160 -240 -226 -186 -139 -520
-327 -725 -409 -33 -13 -82 -34 -110 -46 -62 -28 -301 -124 -335 -134 -14 -5
-63 -22 -110 -40 -94 -35 -439 -150 -510 -170 -25 -7 -56 -16 -70 -20 -14 -4
-56 -17 -95 -28 -38 -11 -101 -30 -140 -41 -122 -36 -207 -58 -305 -81 -52
-12 -108 -26 -125 -31 -35 -10 -393 -96 -500 -119 -22 -5 -60 -13 -85 -19 -25
-6 -101 -22 -170 -36 -69 -14 -159 -32 -200 -40 -148 -30 -269 -49 -415 -65
-55 -7 -130 -16 -167 -21 -37 -5 -167 -9 -290 -9 -300 1 -372 17 -418 93 -20
33 -20 43 7 127 26 81 140 303 192 375 28 38 51 75 51 83 0 7 -7 24 -16 38
-13 18 -15 35 -9 67 16 92 13 109 -24 134 -53 36 -71 31 -137 -43 -110 -123
-220 -302 -261 -424 -25 -77 -26 -346 -1 -437 64 -230 199 -369 418 -428 83
-23 437 -32 590 -16 315 34 385 45 695 107 99 20 191 38 205 41 26 5 121 26
280 64 104 24 667 166 715 179 17 5 46 13 65 19 19 5 67 19 105 31 71 22 102
31 165 49 180 50 692 227 822 284 18 8 49 22 68 30 19 8 71 30 115 47 288 114
622 300 833 463 187 145 302 290 337 422 19 71 36 291 28 355 -15 121 -109
241 -278 356 -77 52 -123 77 -250 134 -68 31 -307 98 -425 119 -145 26 -169
30 -260 40 -222 25 -302 31 -611 42 -252 9 -409 10 -685 0 -673 -22 -1107 -14
-1279 24 -140 30 -234 61 -259 85 -19 18 -18 20 21 67 98 116 229 212 516 376
86 50 299 157 312 157 2 0 28 11 57 24 30 14 78 34 108 46 30 12 78 32 106 45
104 48 531 185 664 214 30 7 73 16 95 21 94 20 224 43 350 60 44 6 107 15 141
21 82 12 369 11 419 -2 57 -15 95 -30 95 -39 0 -15 -121 -192 -193 -283 -40
-51 -81 -104 -90 -119 -22 -36 -24 -150 -2 -172 8 -8 15 -24 15 -36 0 -34 19
-60 44 -60 15 0 43 23 89 74 239 265 297 380 297 591 0 59 -5 126 -12 149 -25
82 -148 176 -281 212 -62 17 -335 26 -457 14z"/>
<path d="M10832 3414 c-44 -23 -118 -106 -156 -178 -17 -32 -35 -59 -41 -60
-6 -1 -11 36 -13 87 l-3 87 -41 30 c-23 17 -47 30 -55 30 -24 0 -49 -91 -73
-270 -6 -47 -15 -112 -20 -145 -31 -202 -34 -259 -35 -590 0 -347 0 -351 24
-410 45 -111 88 -149 123 -107 21 24 24 35 53 180 103 508 190 760 298 864 42
41 56 48 89 48 33 0 46 -7 86 -47 69 -70 124 -182 237 -488 85 -231 201 -384
360 -477 103 -60 210 -79 331 -59 123 20 191 72 154 116 -18 21 -6 122 18 148
55 61 54 95 -5 159 l-48 50 -55 -8 c-30 -4 -113 -8 -185 -9 -150 0 -173 8
-259 86 -53 49 -96 119 -134 219 -137 368 -228 539 -338 640 -20 18 -66 51
-103 73 -78 48 -153 59 -209 31z"/>
<path d="M9710 3124 c-85 -35 -114 -170 -115 -534 0 -198 2 -221 23 -290 40
-127 110 -230 197 -290 49 -34 111 -41 122 -14 3 8 -8 58 -26 110 -27 82 -31
107 -31 201 0 161 29 414 56 493 27 77 29 109 6 133 -11 12 -23 32 -27 45 -3
12 -10 22 -15 22 -5 0 -5 11 1 24 15 32 4 72 -22 86 -23 13 -147 23 -169 14z"/>
<path d="M7280 3020 c-141 -20 -394 -135 -597 -271 -43 -29 -80 -55 -83 -58
-3 -3 -31 -26 -62 -50 -130 -98 -222 -226 -248 -342 -16 -73 -8 -229 15 -294
37 -104 130 -207 231 -256 34 -16 103 -43 155 -60 92 -31 99 -32 274 -33 129
0 207 5 277 17 138 25 262 58 433 115 221 74 414 150 451 176 18 14 18 15 1
33 -21 24 -22 61 -2 87 23 30 18 52 -16 76 l-30 22 -97 -31 c-83 -27 -291 -79
-477 -120 -295 -65 -621 -88 -775 -56 -114 24 -120 31 -45 55 190 59 637 356
791 524 91 99 104 133 104 258 0 83 -4 109 -19 134 -36 60 -157 92 -281 74z
m100 -249 c0 -27 -247 -226 -458 -369 -166 -113 -452 -228 -452 -182 0 19 119
142 205 212 82 67 373 248 399 248 3 0 31 12 62 26 116 53 244 87 244 65z"/>
</g>
</svg>
